<?xml version="1.0" encoding="UTF-8" standalone="no"?>
<!-- Generator: Adobe Illustrator 16.0.0, SVG Export Plug-In . SVG Version: 6.00 Build 0)  -->

<svg
   xmlns:dc="http://purl.org/dc/elements/1.1/"
   xmlns:cc="http://creativecommons.org/ns#"
   xmlns:rdf="http://www.w3.org/1999/02/22-rdf-syntax-ns#"
   xmlns:svg="http://www.w3.org/2000/svg"
   xmlns="http://www.w3.org/2000/svg"
   xmlns:xlink="http://www.w3.org/1999/xlink"
   xmlns:sodipodi="http://sodipodi.sourceforge.net/DTD/sodipodi-0.dtd"
   xmlns:inkscape="http://www.inkscape.org/namespaces/inkscape"
   version="1.1"
   id="Ebene_1"
   x="0px"
   y="0px"
   width="580px"
   height="580px"
   viewBox="0 0 580 580"
   enable-background="new 0 0 580 580"
   xml:space="preserve"
   inkscape:version="0.91 r13725"
   sodipodi:docname="limite.svg"><metadata
     id="metadata33"><rdf:RDF><cc:Work
         rdf:about=""><dc:format>image/svg+xml</dc:format><dc:type
           rdf:resource="http://purl.org/dc/dcmitype/StillImage" /></cc:Work></rdf:RDF></metadata><defs
     id="defs31"><defs
       id="defs5"><rect
         height="580"
         width="580"
         id="SVGID_1_" /></defs><clipPath
       id="SVGID_2_"><use
         id="use9"
         overflow="visible"
         xlink:href="#SVGID_1_" /></clipPath></defs><sodipodi:namedview
     pagecolor="#ffffff"
     bordercolor="#666666"
     borderopacity="1"
     objecttolerance="10"
     gridtolerance="10"
     guidetolerance="10"
     inkscape:pageopacity="0"
     inkscape:pageshadow="2"
     inkscape:window-width="1060"
     inkscape:window-height="778"
     id="namedview29"
     showgrid="false"
     inkscape:zoom="0.40689655"
     inkscape:cx="287.54237"
     inkscape:cy="290"
     inkscape:window-x="69"
     inkscape:window-y="80"
     inkscape:window-maximized="0"
     inkscape:current-layer="Ebene_1" /><path
     style="fill:#111111"
     inkscape:connector-curvature="0"
     id="path11"
     d="M 66.275,1.768 C 24.94,1.768 1.704,23.139 1.704,66.804 l 0,450.123 c 0,40.845 20.894,62.229 62.192,62.229 l 452.024,0 c 41.307,0 62.229,-20.316 62.229,-62.229 l 0,-450.123 c 0,-42.601 -20.924,-65.036 -63.522,-65.036 -0.003,0 -448.494,-0.143 -448.352,0"
     clip-path="url(#SVGID_2_)" /><path
     style="fill:#eeeeee"
     inkscape:connector-curvature="0"
     id="path13"
     d="m 515.92,580.86 -452.024,0 c -20.964,0 -37.043,-5.484 -47.792,-16.301 C 5.418,553.806 0,537.779 0,516.927 L 0,66.804 C 0,23.142 22.917,0.064 66.275,0.064 l 0,0.028 c 0.519,-0.039 1.239,-0.042 2.269,-0.045 1.493,-0.005 3.699,-0.009 6.553,-0.013 5.706,-0.008 14.004,-0.015 24.376,-0.02 103.438,-0.048 413.251,0.049 415.146,0.05 21.565,0 38.039,5.741 48.97,17.063 10.792,11.179 16.265,27.893 16.265,49.677 l 0,450.123 c 0,42.423 -21.511,63.933 -63.934,63.933 z M 67.437,3.46 l -0.005,0.012 -1.157,0 C 45.915,3.472 30.24,8.739 19.684,19.126 8.884,29.754 3.408,45.795 3.408,66.804 l 0,450.123 c 0,40.162 20.351,60.525 60.488,60.525 l 452.024,0 c 40.728,0 60.525,-19.798 60.525,-60.525 l 0,-450.123 c 0,-42.024 -20.799,-63.332 -61.818,-63.332 -1.523,0 -199.84,-0.063 -332.176,-0.063 -84.029,0 -109.775,0.026 -115.014,0.051 z"
     clip-path="url(#SVGID_2_)" /><rect
     style="fill:#515151"
     id="rect15"
     height="277.401"
     width="382.47101"
     clip-path="url(#SVGID_2_)"
     y="110.1"
     x="98.764999" /><path
     style="fill:#ffffff"
     inkscape:connector-curvature="0"
     id="path17"
     d="m 475.235,381.502 -370.47,0 0,-265.401 370.47,0 0,265.401 z m 12,-277.402 -394.47,0 0,289.401 394.47,0 0,-289.401 z"
     clip-path="url(#SVGID_2_)" /><rect
     style="fill:#ffffff"
     id="rect19"
     height="103.159"
     width="15"
     clip-path="url(#SVGID_2_)"
     y="392.853"
     x="92.690002" /><rect
     style="fill:#ffffff"
     id="rect21"
     height="103.159"
     width="15"
     clip-path="url(#SVGID_2_)"
     y="392.853"
     x="471.94601" /><text
     xml:space="preserve"
     style="font-style:normal;font-weight:normal;font-size:61.33697891px;line-height:125%;font-family:sans-serif;letter-spacing:0px;word-spacing:0px;fill:#ffffff;fill-opacity:1;stroke:none;stroke-width:1px;stroke-linecap:butt;stroke-linejoin:miter;stroke-opacity:1"
     x="153.20663"
     y="274.26193"
     id="text3374"
     sodipodi:linespacing="125%"><tspan
       sodipodi:role="line"
       id="tspan3376"
       x="153.20663"
       y="274.26193">Fronteira</tspan></text>
</svg>