<?xml version="1.0" encoding="utf-8"?>
<!-- Generator: Adobe Illustrator 15.0.0, SVG Export Plug-In . SVG Version: 6.00 Build 0)  -->
<!DOCTYPE svg PUBLIC "-//W3C//DTD SVG 1.1//EN" "http://www.w3.org/Graphics/SVG/1.1/DTD/svg11.dtd">
<svg version="1.1" xmlns="http://www.w3.org/2000/svg" xmlns:xlink="http://www.w3.org/1999/xlink" x="0px" y="0px" width="580px"
	 height="580px" viewBox="0 0 580 580" enable-background="new 0 0 580 580" xml:space="preserve">
<g id="Layer_2">
	<g id="g1327">
		<path id="path1329" fill="#111111" stroke="#EEEEEE" stroke-width="3.408" d="M66.275,1.768
			c-41.335,0-64.571,21.371-64.571,65.036v450.123c0,40.844,20.894,62.229,62.192,62.229H515.92
			c41.307,0,62.229-20.316,62.229-62.229V66.804c0-42.601-20.923-65.036-63.522-65.036C514.624,1.768,66.133,1.625,66.275,1.768z"/>
	</g>
</g>
<g id="svg2" inkscape:output_extension="org.inkscape.output.svg.inkscape" sodipodi:version="0.32" sodipodi:docname="waste_bin.svg" inkscape:version="0.46" xmlns:dc="http://purl.org/dc/elements/1.1/" xmlns:cc="http://creativecommons.org/ns#" xmlns:rdf="http://www.w3.org/1999/02/22-rdf-syntax-ns#" xmlns:svg="http://www.w3.org/2000/svg" xmlns:sodipodi="http://sodipodi.sourceforge.net/DTD/sodipodi-0.dtd" xmlns:inkscape="http://www.inkscape.org/namespaces/inkscape">
	
		<sodipodi:namedview  id="base" inkscape:window-width="1567" inkscape:window-x="351" inkscape:window-height="1002" inkscape:current-layer="svg2" inkscape:pageshadow="2" inkscape:window-y="24" inkscape:pageopacity="0.0" gridtolerance="10.0" objecttolerance="10.0" guidetolerance="10.0" inkscape:zoom="0.47226387" showgrid="false" borderopacity="1.0" bordercolor="#666666" pagecolor="#ffffff" inkscape:cy="396.97669" inkscape:cx="-236.39127" inkscape:window-maximized="0">
		</sodipodi:namedview>
	<defs>
		
		
			<inkscape:perspective  id="perspective2441" inkscape:persp3d-origin="290 : 193.33333 : 1" inkscape:vp_z="580 : 290 : 1" inkscape:vp_y="0 : 1000 : 0" inkscape:vp_x="0 : 290 : 1" sodipodi:type="inkscape:persp3d">
			</inkscape:perspective>
		
			<inkscape:perspective  id="perspective2466" inkscape:persp3d-origin="372.04724 : 350.78739 : 1" inkscape:vp_z="744.09448 : 526.18109 : 1" inkscape:vp_y="0 : 1000 : 0" inkscape:vp_x="0 : 526.18109 : 1" sodipodi:type="inkscape:persp3d">
			</inkscape:perspective>
		
			<inkscape:perspective  id="perspective3333" inkscape:persp3d-origin="372.04724 : 350.78739 : 1" inkscape:vp_z="744.09448 : 526.18109 : 1" inkscape:vp_y="0 : 1000 : 0" inkscape:vp_x="0 : 526.18109 : 1" sodipodi:type="inkscape:persp3d">
			</inkscape:perspective>
		
			<inkscape:perspective  id="perspective3401" inkscape:persp3d-origin="372.04724 : 350.78739 : 1" inkscape:vp_z="744.09448 : 526.18109 : 1" inkscape:vp_y="0 : 1000 : 0" inkscape:vp_x="0 : 526.18109 : 1" sodipodi:type="inkscape:persp3d">
			</inkscape:perspective>
		
			<inkscape:perspective  id="perspective3464" inkscape:persp3d-origin="372.04724 : 350.78739 : 1" inkscape:vp_z="744.09448 : 526.18109 : 1" inkscape:vp_y="0 : 1000 : 0" inkscape:vp_x="0 : 526.18109 : 1" sodipodi:type="inkscape:persp3d">
			</inkscape:perspective>
		
			<inkscape:perspective  id="perspective3581" inkscape:persp3d-origin="225 : 150 : 1" inkscape:vp_z="450 : 225 : 1" inkscape:vp_y="0 : 1000 : 0" inkscape:vp_x="0 : 225 : 1" sodipodi:type="inkscape:persp3d">
			</inkscape:perspective>
		
			<inkscape:perspective  id="perspective4312" inkscape:persp3d-origin="225 : 150 : 1" inkscape:vp_z="450 : 225 : 1" inkscape:vp_y="0 : 1000 : 0" inkscape:vp_x="0 : 225 : 1" sodipodi:type="inkscape:persp3d">
			</inkscape:perspective>
	</defs>
	<rect x="21.468" y="341.782" fill="#FFFFFF" width="537.064" height="20"/>
	<rect x="21.468" y="529.782" fill="#FFFFFF" width="537.064" height="20"/>
	<rect x="114.81" y="434.049" fill="#FFFFFF" width="38.934" height="19.467"/>
	<rect x="36.941" y="434.049" fill="#FFFFFF" width="38.934" height="19.467"/>
	<rect x="192.677" y="434.049" fill="#FFFFFF" width="38.935" height="19.467"/>
	<rect x="348.413" y="434.049" fill="#FFFFFF" width="38.935" height="19.467"/>
	<rect x="426.281" y="434.049" fill="#FFFFFF" width="38.935" height="19.467"/>
	<rect x="270.546" y="434.049" fill="#FFFFFF" width="38.934" height="19.467"/>
	<rect x="504.149" y="434.049" fill="#FFFFFF" width="38.934" height="19.467"/>
	<g>
		<path fill="#FFFFFF" d="M266.942,198.582h166.551c18.989,0,34.438-15.448,34.438-34.437c0-18.99-15.449-34.439-34.438-34.439
			H266.942c-18.988,0-34.437,15.449-34.437,34.439C232.506,183.134,247.954,198.582,266.942,198.582z"/>
		<path fill="#FFFFFF" d="M186.849,151.581h0.031c11.501,0,22.404-4.046,30.701-11.396c8.74-7.739,13.748-18.624,13.743-29.88
			c-0.013-22.741-19.962-41.24-44.481-41.24c-24.512,0.013-44.446,18.527-44.434,41.291
			C142.421,133.089,162.356,151.581,186.849,151.581z"/>
		<path fill="#FFFFFF" d="M133.056,195.142h71.747c9.679,0,17.552-7.871,17.552-17.545c0-9.682-7.873-17.559-17.552-17.559h-71.747
			c-9.676,0-17.549,7.877-17.549,17.559C115.506,187.271,123.38,195.142,133.056,195.142z"/>
		<polygon fill="#FFFFFF" points="472.957,154.895 472.957,208.96 107.047,208.96 107.047,93.491 80.915,93.491 80.915,293.725 
			107.047,293.725 107.047,233.34 472.957,233.34 472.957,286.141 499.084,286.141 499.084,154.895 		"/>
	</g>
</g>
</svg>
