<?xml version="1.0" encoding="utf-8"?>
<!-- Generator: Adobe Illustrator 15.0.0, SVG Export Plug-In . SVG Version: 6.00 Build 0)  -->
<!DOCTYPE svg PUBLIC "-//W3C//DTD SVG 1.1//EN" "http://www.w3.org/Graphics/SVG/1.1/DTD/svg11.dtd">
<svg version="1.1" xmlns="http://www.w3.org/2000/svg" xmlns:xlink="http://www.w3.org/1999/xlink" x="0px" y="0px" width="580px"
	 height="580px" viewBox="0 0 580 580" enable-background="new 0 0 580 580" xml:space="preserve">
<g id="Layer_2">
	<g id="g1327">
		<path id="path1329" fill="#111111" stroke="#EEEEEE" stroke-width="3.408" d="M66.275,1.768
			c-41.335,0-64.571,21.371-64.571,65.036v450.123c0,40.844,20.894,62.229,62.192,62.229H515.92
			c41.307,0,62.229-20.316,62.229-62.229V66.804c0-42.601-20.923-65.036-63.522-65.036C514.624,1.768,66.133,1.625,66.275,1.768z"/>
	</g>
</g>
<g id="svg2" inkscape:version="0.46" sodipodi:docname="waste_bin.svg" sodipodi:version="0.32" xmlns:dc="http://purl.org/dc/elements/1.1/" xmlns:cc="http://creativecommons.org/ns#" xmlns:sodipodi="http://sodipodi.sourceforge.net/DTD/sodipodi-0.dtd" xmlns:svg="http://www.w3.org/2000/svg" xmlns:rdf="http://www.w3.org/1999/02/22-rdf-syntax-ns#" xmlns:inkscape="http://www.inkscape.org/namespaces/inkscape" inkscape:output_extension="org.inkscape.output.svg.inkscape">
	<g>
		<path fill="#FFFFFF" d="M481.922,106.408c-5.738-28.694-24.108-40.178-51.656-51.656c-27.16-11.316-92.255-24.841-140.281-25.219
			c-48.024,0.381-113.092,13.903-140.25,25.219c-27.547,11.479-45.918,22.962-51.656,51.656L77.422,265.501v219.187h35.594v34.375
			c0,41.913,61.313,41.913,61.313,0v-34.375h113.25h0.344h117.719v34.375c0,41.913,61.344,41.913,61.344,0v-34.375h35.594V265.501
			L481.922,106.408z M202.547,69.689h85.375h89.531c17.218,0,17.218,25.813,0,25.813h-89.719h-85.188
			C185.329,95.501,185.329,69.689,202.547,69.689z M143.703,415.97c-16.247,0-29.438-13.158-29.438-29.406
			c0-16.247,13.19-29.438,29.438-29.438c16.248,0,29.406,13.19,29.406,29.438C173.109,402.812,159.951,415.97,143.703,415.97z
			 M287.922,282.251H131.859c-15.278,0-18.468-10.972-16.969-22.031l16.094-115.375c2.208-14.018,6.938-23.25,25.125-23.25h131.625
			h136.125c18.188,0,22.948,9.232,25.156,23.25l16.094,115.375c1.5,11.06-1.721,22.031-17,22.031H287.922z M436.297,415.97
			c-16.247,0-29.438-13.158-29.438-29.406c0-16.247,13.19-29.438,29.438-29.438c16.248,0,29.406,13.19,29.406,29.438
			C465.703,402.812,452.545,415.97,436.297,415.97z"/>
		<path fill="#FFFFFF" d="M287.922,29.501c0.677,0,1.379,0.026,2.063,0.031c0.688-0.005,1.382-0.031,2.063-0.031H287.922z"/>
	</g>
</g>
</svg>
